<?xml version="1.0" encoding="UTF-8" standalone="no"?>
<!-- Created with Inkscape (http://www.inkscape.org/) -->

<svg
   version="1.1"
   id="svg5072"
   width="800"
   height="800"
   viewBox="0 0 800 800"
   sodipodi:docname="theater-stage-publicdomainvectors.org.svg"
   inkscape:version="1.2 (dc2aedaf03, 2022-05-15)"
   xmlns:inkscape="http://www.inkscape.org/namespaces/inkscape"
   xmlns:sodipodi="http://sodipodi.sourceforge.net/DTD/sodipodi-0.dtd"
   xmlns="http://www.w3.org/2000/svg"
   xmlns:svg="http://www.w3.org/2000/svg">
  <defs
     id="defs5076">
    <clipPath
       clipPathUnits="userSpaceOnUse"
       id="clipPath5090">
      <path
         d="M 0,600 H 600 V 0 H 0 Z"
         id="path5088" />
    </clipPath>
  </defs>
  <sodipodi:namedview
     id="namedview5074"
     pagecolor="#ffffff"
     bordercolor="#000000"
     borderopacity="0.25"
     inkscape:showpageshadow="2"
     inkscape:pageopacity="0.0"
     inkscape:pagecheckerboard="0"
     inkscape:deskcolor="#d1d1d1"
     showgrid="false"
     inkscape:zoom="1.04625"
     inkscape:cx="399.5221"
     inkscape:cy="400.4779"
     inkscape:window-width="1920"
     inkscape:window-height="1017"
     inkscape:window-x="-8"
     inkscape:window-y="-8"
     inkscape:window-maximized="1"
     inkscape:current-layer="g5080">
    <inkscape:page
       x="0"
       y="0"
       id="page5078"
       width="800"
       height="800" />
  </sodipodi:namedview>
  <g
     id="g5080"
     inkscape:groupmode="layer"
     inkscape:label="Page 1"
     transform="matrix(1.3333333,0,0,-1.3333333,0,800)">
    <path
       d="M 1.316,0.241 H 600.001 V 599 H 1.316 Z"
       style="fill:#1c1a19;fill-opacity:1;fill-rule:nonzero;stroke:none"
       id="path5082" />
    <g
       id="g5084">
      <g
         id="g5086"
         clip-path="url(#clipPath5090)">
        <g
           id="g5092"
           transform="translate(300.6953,30.5625)">
          <path
             d="m 0,0 c 107.019,0 194.303,114.17 194.303,254.152 0,139.982 -87.284,254.152 -194.303,254.152 -107.018,0 -194.302,-114.17 -194.302,-254.152 C -194.302,114.17 -107.018,0 0,0"
             style="fill:#2f2d2d;fill-opacity:1;fill-rule:evenodd;stroke:none"
             id="path5094" />
        </g>
        <path
           d="m 1.316,0.241 h 598.759 v 123.83 H 1.316 Z"
           style="fill:#bb874f;fill-opacity:1;fill-rule:evenodd;stroke:none"
           id="path5096" />
        <g
           id="g5098"
           transform="translate(72.3315,124.0713)">
          <path
             d="m 0,0 h 5.355 l -76.371,-93.259 v 6.539 z"
             style="fill:#cc9456;fill-opacity:1;fill-rule:evenodd;stroke:none"
             id="path5100" />
        </g>
        <g
           id="g5102"
           transform="translate(114.2227,124.0713)">
          <path
             d="m 0,0 h 5.355 c -27.779,-41.276 -55.558,-82.553 -83.338,-123.83 h -5.355 C -55.559,-82.553 -27.78,-41.276 0,0"
             style="fill:#cc9456;fill-opacity:1;fill-rule:evenodd;stroke:none"
             id="path5104" />
        </g>
        <g
           id="g5106"
           transform="translate(156.1138,124.0713)">
          <path
             d="m 0,0 h 5.356 c -21.757,-41.276 -43.515,-82.553 -65.272,-123.83 h -5.356 C -43.515,-82.553 -21.757,-41.276 0,0"
             style="fill:#cc9456;fill-opacity:1;fill-rule:evenodd;stroke:none"
             id="path5108" />
        </g>
        <g
           id="g5110"
           transform="translate(198.0049,124.0713)">
          <path
             d="m 0,0 h 5.356 c -15.735,-41.276 -31.47,-82.553 -47.205,-123.83 h -5.356 C -31.47,-82.553 -15.735,-41.276 0,0"
             style="fill:#cc9456;fill-opacity:1;fill-rule:evenodd;stroke:none"
             id="path5112" />
        </g>
        <g
           id="g5114"
           transform="translate(239.896,124.0713)">
          <path
             d="m 0,0 h 5.356 c -9.713,-41.276 -19.425,-82.553 -29.137,-123.83 h -5.357 C -19.425,-82.553 -9.712,-41.276 0,0"
             style="fill:#cc9456;fill-opacity:1;fill-rule:evenodd;stroke:none"
             id="path5116" />
        </g>
        <g
           id="g5118"
           transform="translate(281.7871,124.0713)">
          <path
             d="M 0,0 H 5.355 C 1.667,-41.276 -2.025,-82.553 -5.714,-123.83 h -5.357 C -7.381,-82.553 -3.69,-41.276 0,0"
             style="fill:#cc9456;fill-opacity:1;fill-rule:evenodd;stroke:none"
             id="path5120" />
        </g>
        <g
           id="g5122"
           transform="translate(323.6777,124.0713)">
          <path
             d="m 0,0 h 5.357 c 2.332,-41.276 4.664,-82.553 6.996,-123.83 H 6.997 C 4.665,-82.553 2.333,-41.276 0,0"
             style="fill:#cc9456;fill-opacity:1;fill-rule:evenodd;stroke:none"
             id="path5124" />
        </g>
        <g
           id="g5126"
           transform="translate(365.5693,124.0713)">
          <path
             d="M 0,0 H 5.355 C 13.711,-41.276 22.066,-82.553 30.42,-123.83 H 25.062 C 16.708,-82.553 8.355,-41.276 0,0"
             style="fill:#cc9456;fill-opacity:1;fill-rule:evenodd;stroke:none"
             id="path5128" />
        </g>
        <g
           id="g5130"
           transform="translate(407.4609,124.0713)">
          <path
             d="m 0,0 h 5.355 c 14.378,-41.276 28.753,-82.553 43.13,-123.83 H 43.13 C 28.753,-82.553 14.377,-41.276 0,0"
             style="fill:#cc9456;fill-opacity:1;fill-rule:evenodd;stroke:none"
             id="path5132" />
        </g>
        <g
           id="g5134"
           transform="translate(449.3516,124.0713)">
          <path
             d="m 0,0 h 5.356 c 20.4,-41.276 40.798,-82.553 61.198,-123.83 H 61.198 C 40.798,-82.553 20.4,-41.276 0,0"
             style="fill:#cc9456;fill-opacity:1;fill-rule:evenodd;stroke:none"
             id="path5136" />
        </g>
        <g
           id="g5138"
           transform="translate(491.2432,124.0713)">
          <path
             d="M 0,0 H 5.355 C 31.776,-41.276 58.198,-82.553 84.619,-123.83 H 79.264 C 52.843,-82.553 26.421,-41.276 0,0"
             style="fill:#cc9456;fill-opacity:1;fill-rule:evenodd;stroke:none"
             id="path5140" />
        </g>
        <g
           id="g5142"
           transform="translate(485.8867,124.0713)">
          <path
             d="M 0,0 C 26.421,-41.276 52.842,-82.553 79.265,-123.83 H 84.62 C 58.199,-82.553 31.777,-41.276 5.357,0 Z m -41.891,0 c 20.399,-41.276 40.798,-82.553 61.197,-123.83 h 5.357 C 4.263,-82.553 -16.135,-41.276 -36.535,0 Z m -41.891,0 h 5.356 c 14.377,-41.276 28.753,-82.553 43.13,-123.83 h -5.355 C -55.029,-82.553 -69.406,-41.276 -83.782,0 m -41.891,0 h 5.356 c 8.354,-41.276 16.708,-82.553 25.062,-123.83 h -5.355 c -8.355,41.277 -16.708,82.554 -25.063,123.83 m -41.891,0 h 5.355 c 2.333,-41.276 4.665,-82.553 6.997,-123.83 h -5.355 c -2.334,41.277 -4.664,82.554 -6.997,123.83 m -41.891,0 h 5.355 c -3.69,-41.276 -7.38,-82.553 -11.071,-123.83 h -5.355 c 3.69,41.277 7.38,82.554 11.071,123.83 m -41.892,0 h 5.356 c -9.712,-41.276 -19.424,-82.553 -29.137,-123.83 h -5.356 c 9.713,41.277 19.425,82.554 29.137,123.83 m -41.891,0 c -15.735,-41.276 -31.47,-82.553 -47.204,-123.83 h 5.356 c 15.734,41.277 31.469,82.554 47.204,123.83 z m -41.891,0 h 5.356 c -21.757,-41.276 -43.515,-82.553 -65.272,-123.83 h -5.355 c 21.757,41.277 43.513,82.554 65.271,123.83 m -41.892,0 c -27.778,-41.276 -55.558,-82.553 -83.338,-123.83 h 5.357 c 27.779,41.277 55.558,82.554 83.338,123.83 z m -41.891,0 h 5.357 l -71.016,-86.72 v 6.541 z M 41.892,0 h 5.355 l 66.942,-85.166 v -6.814 z"
             style="fill:#a87946;fill-opacity:1;fill-rule:evenodd;stroke:none"
             id="path5144" />
        </g>
        <g
           id="g5146"
           transform="translate(533.1338,124.0713)">
          <path
             d="m 0,0 h 5.356 l 61.585,-78.353 v -6.813 z"
             style="fill:#cc9456;fill-opacity:1;fill-rule:evenodd;stroke:none"
             id="path5148" />
        </g>
        <path
           d="M 1.316,103.541 H 164.958 V 599 H 1.316 Z"
           style="fill:#971a1f;fill-opacity:1;fill-rule:evenodd;stroke:none"
           id="path5150" />
        <path
           d="M 54.116,599 H 72.419 V 103.541 H 54.116 Z m -36.003,0 H 36.416 V 103.541 H 18.113 Z m 108.01,0 h 18.303 V 103.541 h -18.303 z m -36.003,0 h 18.303 V 103.541 H 90.12 Z"
           style="fill:#cc2d23;fill-opacity:1;fill-rule:evenodd;stroke:none"
           id="path5152" />
        <g
           id="g5154"
           transform="translate(1.3159,599)">
          <path
             d="M 0,0 H 115.052 230.149 C 227.457,-64.625 209.03,-129.277 159.424,-193.873 109.836,-258.448 91.461,-323.084 88.792,-387.669 H 44.373 0 v 193.796 z"
             style="fill:#ef3520;fill-opacity:1;fill-rule:evenodd;stroke:none"
             id="path5156" />
        </g>
        <g
           id="g5158"
           transform="translate(75.562,599)">
          <path
             d="m 0,0 c -0.874,-64.625 -6.824,-129.285 -22.831,-193.873 -16.005,-64.584 -21.91,-129.211 -22.785,-193.796 h 9.943 c 1.151,64.585 9.127,129.213 30.678,193.796 C 16.56,-129.285 24.581,-64.625 25.754,0 Z m -50.633,0 c -0.299,-64.625 -2.186,-129.288 -7.272,-193.873 -5.086,-64.587 -6.974,-129.211 -7.25,-193.796 h 9.943 c 0.574,64.585 4.51,129.211 15.143,193.796 10.633,64.585 14.568,129.248 15.167,193.873 z M 101.266,0 C 99.195,-64.625 85.146,-129.283 47.319,-193.873 9.497,-258.454 -4.511,-323.084 -6.536,-387.669 h 9.92 c 2.347,64.585 18.396,129.22 61.771,193.796 43.39,64.596 59.494,129.248 61.865,193.873 z M 50.633,0 H 76.387 C 74.614,-64.625 62.545,-129.283 30.081,-193.873 -2.38,-258.454 -14.407,-323.084 -16.133,-387.669 h -9.943 c 1.45,64.585 11.406,129.214 38.321,193.796 C 39.161,-129.284 49.16,-64.625 50.633,0"
             style="fill:#de3022;fill-opacity:1;fill-rule:evenodd;stroke:none"
             id="path5160" />
        </g>
        <g
           id="g5162"
           transform="translate(1.3159,63.3701)">
          <path
             d="m 0,0 h 62.02 62.044 C 123.394,24.649 118.8,49.308 106.422,73.965 94.05,98.608 89.475,123.296 88.793,147.961 H 44.378 0 V 73.965 Z"
             style="fill:#ef3520;fill-opacity:1;fill-rule:evenodd;stroke:none"
             id="path5164" />
        </g>
        <g
           id="g5166"
           transform="translate(41.3384,63.3701)">
          <path
             d="m 0,0 c -0.223,24.649 -1.699,49.315 -5.694,73.965 -3.994,24.65 -5.471,49.331 -5.695,73.996 h 9.938 C -1.153,123.296 0.838,98.614 6.216,73.965 11.594,49.313 13.585,24.649 13.883,0 Z m -27.294,0 h 13.871 c -0.149,24.649 -1.129,49.315 -3.785,73.965 -2.654,24.65 -3.635,49.331 -3.783,73.996 h -9.926 c 0.063,-24.665 0.541,-49.346 1.813,-73.996 1.27,-24.65 1.736,-49.316 1.81,-73.965 M 54.588,0 C 54.067,24.649 50.565,49.31 41.127,73.965 31.695,98.608 28.2,123.296 27.679,147.961 h 9.937 C 38.212,123.296 42.216,98.608 53.038,73.965 63.864,49.308 67.875,24.649 68.472,0 Z M 27.294,0 H 41.177 C 40.73,24.649 37.73,49.311 29.626,73.965 c -8.1,24.646 -11.09,49.331 -11.537,73.996 H 8.152 C 8.524,123.296 10.999,98.614 17.717,73.965 24.435,49.313 26.922,24.649 27.294,0"
             style="fill:#de3022;fill-opacity:1;fill-rule:evenodd;stroke:none"
             id="path5168" />
        </g>
        <path
           d="m 1.316,201.735 h 92.901 v 17.854 H 1.316 Z"
           style="fill:#fab40a;fill-opacity:1;fill-rule:evenodd;stroke:none"
           id="path5170" />
        <g
           id="g5172"
           transform="translate(36.416,211.3311)">
          <path
             d="m 0,0 h 11.919 v -71.728 c 0,-3.278 -2.681,-5.96 -5.959,-5.96 H 5.959 c -3.277,0 -5.959,2.682 -5.959,5.96 z"
             style="fill:#fab40a;fill-opacity:1;fill-rule:evenodd;stroke:none"
             id="path5174" />
        </g>
        <g
           id="g5176"
           transform="translate(53.2646,211.3311)">
          <path
             d="m 0,0 h 11.919 v -47.27 c 0,-3.277 -2.681,-5.96 -5.959,-5.96 H 5.959 C 2.682,-53.23 0,-50.547 0,-47.27 Z"
             style="fill:#fab40a;fill-opacity:1;fill-rule:evenodd;stroke:none"
             id="path5178" />
        </g>
        <path
           d="M 436.434,103.541 H 600.076 V 599 H 436.434 Z"
           style="fill:#971a1f;fill-opacity:1;fill-rule:evenodd;stroke:none"
           id="path5180" />
        <path
           d="M 547.275,599 H 528.972 V 103.541 h 18.303 z m 36.003,0 H 564.975 V 103.541 h 18.303 z m -108.009,0 H 456.966 V 103.541 h 18.303 z m 36.002,0 H 492.969 V 103.541 h 18.302 z"
           style="fill:#cc2d23;fill-opacity:1;fill-rule:evenodd;stroke:none"
           id="path5182" />
        <g
           id="g5184"
           transform="translate(600.0752,599)">
          <path
             d="m 0,0 h -115.052 -115.096 c 2.692,-64.625 21.119,-129.277 70.724,-193.873 49.588,-64.575 67.963,-129.211 70.632,-193.796 H -44.372 0 v 193.796 z"
             style="fill:#ef3520;fill-opacity:1;fill-rule:evenodd;stroke:none"
             id="path5186" />
        </g>
        <g
           id="g5188"
           transform="translate(525.8301,599)">
          <path
             d="m 0,0 c 0.873,-64.625 6.822,-129.285 22.829,-193.873 16.007,-64.584 21.912,-129.211 22.786,-193.796 H 35.672 C 34.521,-323.084 26.546,-258.456 4.993,-193.873 -16.561,-129.285 -24.58,-64.625 -25.755,0 Z m 50.633,0 c 0.299,-64.625 2.186,-129.288 7.271,-193.873 5.087,-64.587 6.974,-129.211 7.25,-193.796 h -9.942 c -0.575,64.585 -4.511,129.211 -15.144,193.796 C 29.435,-129.288 25.5,-64.625 24.901,0 Z m -151.9,0 c 2.072,-64.625 16.121,-129.283 53.947,-193.873 37.822,-64.581 51.83,-129.211 53.855,-193.796 h -9.919 c -2.348,64.585 -18.397,129.22 -61.772,193.796 -43.39,64.596 -59.494,129.248 -61.864,193.873 z m 50.633,0 h -25.753 c 1.773,-64.625 13.842,-129.283 46.306,-193.873 32.461,-64.581 44.488,-129.211 46.214,-193.796 h 9.942 c -1.45,64.585 -11.405,129.214 -38.32,193.796 C -39.162,-129.284 -49.161,-64.625 -50.634,0"
             style="fill:#de3022;fill-opacity:1;fill-rule:evenodd;stroke:none"
             id="path5190" />
        </g>
        <g
           id="g5192"
           transform="translate(600.0752,63.3701)">
          <path
             d="m 0,0 h -62.019 -62.044 c 0.67,24.649 5.262,49.308 17.641,73.965 12.372,24.643 16.947,49.331 17.63,73.996 H -44.378 0 V 73.965 Z"
             style="fill:#ef3520;fill-opacity:1;fill-rule:evenodd;stroke:none"
             id="path5194" />
        </g>
        <g
           id="g5196"
           transform="translate(560.0527,63.3701)">
          <path
             d="m 0,0 c 0.223,24.649 1.699,49.315 5.694,73.965 3.995,24.65 5.471,49.331 5.695,73.996 H 1.45 C 1.154,123.296 -0.838,98.614 -6.217,73.965 -11.594,49.313 -13.586,24.649 -13.884,0 Z m 27.294,0 h -13.87 c 0.148,24.649 1.129,49.315 3.783,73.965 2.654,24.65 3.636,49.331 3.783,73.996 h 9.927 C 30.854,123.296 30.377,98.615 29.106,73.965 27.834,49.315 27.369,24.649 27.294,0 m -81.882,0 c 0.522,24.649 4.023,49.31 13.461,73.965 9.433,24.643 12.928,49.331 13.448,73.996 h -9.938 c -0.594,-24.665 -4.6,-49.353 -15.42,-73.996 C -63.865,49.308 -67.875,24.649 -68.471,0 Z m 27.294,0 h -13.883 c 0.447,24.649 3.448,49.311 11.551,73.965 8.099,24.646 11.09,49.331 11.538,73.996 h 9.937 C -8.523,123.296 -11,98.614 -17.717,73.965 -24.435,49.313 -26.922,24.649 -27.294,0"
             style="fill:#de3022;fill-opacity:1;fill-rule:evenodd;stroke:none"
             id="path5198" />
        </g>
        <path
           d="m 507.175,201.735 h 92.9 v 17.854 h -92.9 z"
           style="fill:#fab40a;fill-opacity:1;fill-rule:evenodd;stroke:none"
           id="path5200" />
        <g
           id="g5202"
           transform="translate(564.9756,211.3311)">
          <path
             d="m 0,0 h -11.92 v -71.728 c 0,-3.278 2.683,-5.96 5.96,-5.96 3.278,0 5.96,2.682 5.96,5.96 z"
             style="fill:#fab40a;fill-opacity:1;fill-rule:evenodd;stroke:none"
             id="path5204" />
        </g>
        <g
           id="g5206"
           transform="translate(548.126,211.3311)">
          <path
             d="m 0,0 h -11.918 v -47.27 c 0,-3.277 2.681,-5.96 5.958,-5.96 h 0.002 c 3.277,0 5.958,2.683 5.958,5.96 z"
             style="fill:#fab40a;fill-opacity:1;fill-rule:evenodd;stroke:none"
             id="path5208" />
        </g>
        <path
           d="m 1.316,0.24 h 598.759 v 9.789 H 1.316 Z"
           style="fill:#603616;fill-opacity:1;fill-rule:evenodd;stroke:none"
           id="path5210" />
      </g>
    </g>
  </g>
</svg>
